<svg xmlns="http://www.w3.org/2000/svg" viewBox="0 0 1200 400" width="1200" height="400">
<defs><filter id="s" x="-20%" y="-20%" width="140%" height="160%"><feDropShadow dx="0" dy="14" stdDeviation="16" flood-color="#000" flood-opacity=".18"/></filter>
<pattern id="dots" width="22" height="22" patternUnits="userSpaceOnUse"><circle cx="2" cy="2" r="1.4" fill="#000" opacity=".06"/></pattern></defs>
<rect width="1200" height="400" fill="#EFEDE8"/><rect width="1200" height="400" fill="url(#dots)"/>
<circle cx="1080" cy="-40" r="220" fill="#FF4C24" opacity=".08"/><circle cx="90" cy="430" r="200" fill="#FF4C24" opacity=".06"/>
<g filter="url(#s)" transform="rotate(-5 520 210)"><rect x="400" y="40" width="240" height="330" fill="#FF4C24"/><text x="420" y="92" font-family="Georgia,serif" font-weight="700" font-size="44" fill="#FBFAF7">BRUSH</text><circle cx="520" cy="220" r="80" fill="#1E0F0B"/><rect x="420" y="320" width="150" height="10" rx="3" fill="#FBFAF7"/><rect x="420" y="338" width="100" height="7" rx="3" fill="#FBFAF7" opacity=".7"/></g>
<g filter="url(#s)" transform="rotate(6 760 210)"><rect x="620" y="60" width="300" height="300" fill="#FBFAF7"/><line x1="770" y1="60" x2="770" y2="360" stroke="#D9D6CF" stroke-width="2"/><rect x="640" y="84" width="112" height="120" fill="#1E0F0B"/><rect x="640" y="220" width="112" height="5" rx="3" fill="#D9D6CF"/><rect x="640" y="238" width="112" height="5" rx="3" fill="#D9D6CF"/><rect x="640" y="256" width="112" height="5" rx="3" fill="#D9D6CF"/><rect x="640" y="274" width="112" height="5" rx="3" fill="#D9D6CF"/><rect x="640" y="292" width="112" height="5" rx="3" fill="#D9D6CF"/><rect x="640" y="310" width="67" height="5" rx="3" fill="#D9D6CF"/><rect x="790" y="84" width="110" height="16" rx="3" fill="#C0320E"/><rect x="790" y="114" width="110" height="5" rx="3" fill="#D9D6CF"/><rect x="790" y="132" width="110" height="5" rx="3" fill="#D9D6CF"/><rect x="790" y="150" width="110" height="5" rx="3" fill="#D9D6CF"/><rect x="790" y="168" width="110" height="5" rx="3" fill="#D9D6CF"/><rect x="790" y="186" width="110" height="5" rx="3" fill="#D9D6CF"/><rect x="790" y="204" width="110" height="5" rx="3" fill="#D9D6CF"/><rect x="790" y="222" width="110" height="5" rx="3" fill="#D9D6CF"/><rect x="790" y="240" width="110" height="5" rx="3" fill="#D9D6CF"/><rect x="790" y="258" width="110" height="5" rx="3" fill="#D9D6CF"/><rect x="790" y="276" width="110" height="5" rx="3" fill="#D9D6CF"/><rect x="790" y="294" width="66" height="5" rx="3" fill="#D9D6CF"/></g></svg>